<svg width="145" height="24" viewBox="0 0 145 24" fill="none" xmlns="http://www.w3.org/2000/svg">
<g opacity="0.7">
<path d="M7.69146 10.1148V11.6762C7.69146 12.5155 7.61644 13.2236 7.46639 13.8003C7.31634 14.377 7.10065 14.8412 6.81931 15.1929C6.53798 15.5446 6.19803 15.8001 5.79947 15.9596C5.4056 16.1143 4.96015 16.1917 4.46312 16.1917C4.06925 16.1917 3.70585 16.1424 3.37294 16.044C3.04002 15.9455 2.73993 15.7884 2.47266 15.5727C2.21008 15.3523 1.98501 15.0663 1.79745 14.7146C1.60989 14.363 1.46688 13.9363 1.36841 13.4346C1.26994 12.9328 1.22071 12.3467 1.22071 11.6762V10.1148C1.22071 9.27546 1.29573 8.57212 1.44578 8.00476C1.60051 7.43739 1.81855 6.98257 2.09989 6.64027C2.38122 6.29329 2.71883 6.04478 3.1127 5.89473C3.51126 5.74468 3.95671 5.66966 4.44905 5.66966C4.84761 5.66966 5.21335 5.7189 5.54626 5.81736C5.88387 5.91114 6.18396 6.06353 6.44654 6.27454C6.70912 6.48085 6.93185 6.7575 7.11472 7.10448C7.30228 7.44677 7.44529 7.86643 7.54376 8.36346C7.64223 8.86049 7.69146 9.44427 7.69146 10.1148ZM6.38324 11.8872V9.89675C6.38324 9.43723 6.35511 9.03398 6.29884 8.687C6.24726 8.33533 6.1699 8.03524 6.06674 7.78672C5.96358 7.53821 5.83229 7.33658 5.67287 7.18185C5.51813 7.02711 5.33761 6.91458 5.13129 6.84424C4.92967 6.76922 4.70225 6.73171 4.44905 6.73171C4.13958 6.73171 3.86528 6.79032 3.62614 6.90754C3.387 7.02008 3.18538 7.2006 3.02127 7.44912C2.86184 7.69763 2.73993 8.02351 2.65553 8.42676C2.57113 8.83001 2.52893 9.32001 2.52893 9.89675V11.8872C2.52893 12.3467 2.55472 12.7523 2.60629 13.104C2.66256 13.4557 2.74462 13.7604 2.85246 14.0183C2.96031 14.2715 3.0916 14.4802 3.24634 14.6443C3.40107 14.8084 3.57925 14.9303 3.78088 15.01C3.98719 15.0851 4.2146 15.1226 4.46312 15.1226C4.78197 15.1226 5.06096 15.0616 5.30009 14.9397C5.53923 14.8178 5.73851 14.6279 5.89794 14.37C6.06205 14.1074 6.18396 13.7722 6.26367 13.3642C6.34339 12.9516 6.38324 12.4593 6.38324 11.8872ZM11.2644 10.2906H12.1929C12.6477 10.2906 13.0228 10.2156 13.3182 10.0656C13.6183 9.91082 13.841 9.70216 13.9864 9.43958C14.1364 9.17231 14.2114 8.87221 14.2114 8.5393C14.2114 8.14543 14.1458 7.81486 14.0145 7.54759C13.8832 7.28032 13.6863 7.07869 13.4237 6.94271C13.1611 6.80673 12.8282 6.73874 12.425 6.73874C12.0592 6.73874 11.7357 6.81142 11.4543 6.95678C11.1777 7.09745 10.9597 7.29907 10.8002 7.56165C10.6455 7.82423 10.5681 8.1337 10.5681 8.49006H9.26695C9.26695 7.96959 9.39824 7.49601 9.66082 7.06931C9.9234 6.64262 10.2915 6.30267 10.7651 6.04947C11.2433 5.79626 11.7966 5.66966 12.425 5.66966C13.0439 5.66966 13.5855 5.77985 14.0497 6.00023C14.5139 6.21592 14.8749 6.53946 15.1328 6.97084C15.3907 7.39754 15.5197 7.92973 15.5197 8.56743C15.5197 8.82532 15.4587 9.10197 15.3368 9.39738C15.2196 9.68809 15.0344 9.96005 14.7812 10.2133C14.5326 10.4665 14.2091 10.6751 13.8105 10.8392C13.412 10.9987 12.9337 11.0784 12.3757 11.0784H11.2644V10.2906ZM11.2644 11.3597V10.579H12.3757C13.0275 10.579 13.5667 10.6564 13.9934 10.8111C14.4201 10.9658 14.7554 11.1721 14.9992 11.43C15.2477 11.6879 15.4212 11.9716 15.5197 12.2811C15.6228 12.5859 15.6744 12.8906 15.6744 13.1954C15.6744 13.6737 15.5923 14.098 15.4282 14.4685C15.2688 14.8389 15.0414 15.1531 14.746 15.411C14.4553 15.6688 14.113 15.8634 13.7191 15.9947C13.3252 16.126 12.8962 16.1917 12.432 16.1917C11.9865 16.1917 11.5669 16.1284 11.173 16.0018C10.7838 15.8752 10.4392 15.6923 10.1391 15.4532C9.839 15.2093 9.60455 14.9116 9.43575 14.5599C9.26695 14.2035 9.18255 13.798 9.18255 13.3431H10.4837C10.4837 13.6995 10.5611 14.0113 10.7158 14.2786C10.8753 14.5458 11.1003 14.7545 11.391 14.9045C11.6864 15.0499 12.0334 15.1226 12.432 15.1226C12.8305 15.1226 13.1728 15.0546 13.4589 14.9186C13.7496 14.7779 13.9723 14.5669 14.127 14.2856C14.2865 14.0043 14.3662 13.6503 14.3662 13.2236C14.3662 12.7969 14.2771 12.4475 14.0989 12.1756C13.9207 11.8989 13.6675 11.695 13.3393 11.5637C13.0158 11.4277 12.6336 11.3597 12.1929 11.3597H11.2644ZM17.5523 15.3617C17.5523 15.1413 17.6203 14.9561 17.7563 14.8061C17.897 14.6513 18.0986 14.574 18.3612 14.574C18.6237 14.574 18.823 14.6513 18.959 14.8061C19.0997 14.9561 19.17 15.1413 19.17 15.3617C19.17 15.5774 19.0997 15.7603 18.959 15.9103C18.823 16.0604 18.6237 16.1354 18.3612 16.1354C18.0986 16.1354 17.897 16.0604 17.7563 15.9103C17.6203 15.7603 17.5523 15.5774 17.5523 15.3617ZM17.5594 9.15121C17.5594 8.93083 17.6273 8.74561 17.7633 8.59557C17.904 8.44083 18.1056 8.36346 18.3682 8.36346C18.6308 8.36346 18.8301 8.44083 18.966 8.59557C19.1067 8.74561 19.177 8.93083 19.177 9.15121C19.177 9.3669 19.1067 9.54977 18.966 9.69981C18.8301 9.84986 18.6308 9.92488 18.3682 9.92488C18.1056 9.92488 17.904 9.84986 17.7633 9.69981C17.6273 9.54977 17.5594 9.3669 17.5594 9.15121ZM27.6664 14.9819V16.051H20.9635V15.1155L24.3185 11.3808C24.7311 10.9213 25.05 10.5321 25.275 10.2133C25.5048 9.88972 25.6642 9.60135 25.7533 9.34814C25.8471 9.09025 25.894 8.82767 25.894 8.5604C25.894 8.22279 25.8236 7.91801 25.683 7.64605C25.547 7.36941 25.3454 7.14902 25.0781 6.98491C24.8108 6.8208 24.4873 6.73874 24.1075 6.73874C23.6526 6.73874 23.2728 6.82783 22.9681 7.00601C22.668 7.1795 22.4429 7.42333 22.2928 7.73749C22.1428 8.05165 22.0678 8.4127 22.0678 8.82064H20.7666C20.7666 8.24389 20.8932 7.71639 21.1464 7.23811C21.3996 6.75984 21.7747 6.38004 22.2717 6.0987C22.7688 5.81267 23.3807 5.66966 24.1075 5.66966C24.7545 5.66966 25.3078 5.78454 25.7674 6.0143C26.2269 6.23937 26.5785 6.55822 26.8224 6.97084C27.0709 7.37878 27.1951 7.85706 27.1951 8.40566C27.1951 8.70576 27.1436 9.01054 27.0404 9.32001C26.9419 9.62479 26.8036 9.92957 26.6254 10.2344C26.4519 10.5391 26.248 10.8392 26.0135 11.1346C25.7838 11.43 25.5376 11.7208 25.275 12.0068L22.532 14.9819H27.6664ZM35.4876 10.1148V11.6762C35.4876 12.5155 35.4125 13.2236 35.2625 13.8003C35.1124 14.377 34.8967 14.8412 34.6154 15.1929C34.3341 15.5446 33.9941 15.8001 33.5956 15.9596C33.2017 16.1143 32.7562 16.1917 32.2592 16.1917C31.8653 16.1917 31.5019 16.1424 31.169 16.044C30.8361 15.9455 30.536 15.7884 30.2688 15.5727C30.0062 15.3523 29.7811 15.0663 29.5935 14.7146C29.406 14.363 29.263 13.9363 29.1645 13.4346C29.066 12.9328 29.0168 12.3467 29.0168 11.6762V10.1148C29.0168 9.27546 29.0918 8.57212 29.2419 8.00476C29.3966 7.43739 29.6146 6.98257 29.896 6.64027C30.1773 6.29329 30.5149 6.04478 30.9088 5.89473C31.3074 5.74468 31.7528 5.66966 32.2451 5.66966C32.6437 5.66966 33.0094 5.7189 33.3424 5.81736C33.68 5.91114 33.9801 6.06353 34.2426 6.27454C34.5052 6.48085 34.7279 6.7575 34.9108 7.10448C35.0984 7.44677 35.2414 7.86643 35.3399 8.36346C35.4383 8.86049 35.4876 9.44427 35.4876 10.1148ZM34.1793 11.8872V9.89675C34.1793 9.43723 34.1512 9.03398 34.0949 8.687C34.0434 8.33533 33.966 8.03524 33.8628 7.78672C33.7597 7.53821 33.6284 7.33658 33.469 7.18185C33.3142 7.02711 33.1337 6.91458 32.9274 6.84424C32.7258 6.76922 32.4983 6.73171 32.2451 6.73171C31.9357 6.73171 31.6614 6.79032 31.4222 6.90754C31.1831 7.02008 30.9815 7.2006 30.8174 7.44912C30.6579 7.69763 30.536 8.02351 30.4516 8.42676C30.3672 8.83001 30.325 9.32001 30.325 9.89675V11.8872C30.325 12.3467 30.3508 12.7523 30.4024 13.104C30.4587 13.4557 30.5407 13.7604 30.6486 14.0183C30.7564 14.2715 30.8877 14.4802 31.0424 14.6443C31.1972 14.8084 31.3753 14.9303 31.577 15.01C31.7833 15.0851 32.0107 15.1226 32.2592 15.1226C32.5781 15.1226 32.8571 15.0616 33.0962 14.9397C33.3353 14.8178 33.5346 14.6279 33.694 14.37C33.8581 14.1074 33.9801 13.7722 34.0598 13.3642C34.1395 12.9516 34.1793 12.4593 34.1793 11.8872Z" fill="#C4C4CC"/>
</g>
</svg>
