<svg width="37" height="24" viewBox="0 0 37 24" fill="none" xmlns="http://www.w3.org/2000/svg">
<g opacity="0.7">
<path d="M7.33895 10.1148V11.6762C7.33895 12.5155 7.26393 13.2236 7.11388 13.8003C6.96383 14.377 6.74814 14.8412 6.46681 15.1929C6.18547 15.5446 5.84552 15.8001 5.44696 15.9596C5.05309 16.1143 4.60764 16.1917 4.11061 16.1917C3.71674 16.1917 3.35334 16.1424 3.02043 16.044C2.68751 15.9455 2.38742 15.7884 2.12015 15.5727C1.85757 15.3523 1.6325 15.0663 1.44494 14.7146C1.25738 14.363 1.11437 13.9363 1.0159 13.4346C0.917434 12.9328 0.8682 12.3467 0.8682 11.6762V10.1148C0.8682 9.27546 0.943224 8.57212 1.09327 8.00476C1.24801 7.43739 1.46604 6.98257 1.74738 6.64027C2.02872 6.29329 2.36632 6.04478 2.76019 5.89473C3.15875 5.74468 3.6042 5.66966 4.09654 5.66966C4.4951 5.66966 4.86084 5.7189 5.19376 5.81736C5.53136 5.91114 5.83145 6.06353 6.09403 6.27454C6.35662 6.48085 6.57934 6.7575 6.76221 7.10448C6.94977 7.44677 7.09278 7.86643 7.19125 8.36346C7.28972 8.86049 7.33895 9.44427 7.33895 10.1148ZM6.03073 11.8872V9.89675C6.03073 9.43723 6.0026 9.03398 5.94633 8.687C5.89475 8.33533 5.81739 8.03524 5.71423 7.78672C5.61107 7.53821 5.47978 7.33658 5.32036 7.18185C5.16562 7.02711 4.9851 6.91458 4.77878 6.84424C4.57716 6.76922 4.34975 6.73171 4.09654 6.73171C3.78707 6.73171 3.51277 6.79032 3.27363 6.90754C3.0345 7.02008 2.83287 7.2006 2.66876 7.44912C2.50933 7.69763 2.38742 8.02351 2.30302 8.42676C2.21862 8.83001 2.17642 9.32001 2.17642 9.89675V11.8872C2.17642 12.3467 2.20221 12.7523 2.25378 13.104C2.31005 13.4557 2.39211 13.7604 2.49995 14.0183C2.6078 14.2715 2.73909 14.4802 2.89383 14.6443C3.04856 14.8084 3.22674 14.9303 3.42837 15.01C3.63468 15.0851 3.86209 15.1226 4.11061 15.1226C4.42946 15.1226 4.70845 15.0616 4.94759 14.9397C5.18672 14.8178 5.386 14.6279 5.54543 14.37C5.70954 14.1074 5.83145 13.7722 5.91117 13.3642C5.99088 12.9516 6.03073 12.4593 6.03073 11.8872ZM15.4415 10.1148V11.6762C15.4415 12.5155 15.3664 13.2236 15.2164 13.8003C15.0663 14.377 14.8506 14.8412 14.5693 15.1929C14.288 15.5446 13.948 15.8001 13.5495 15.9596C13.1556 16.1143 12.7101 16.1917 12.2131 16.1917C11.8192 16.1917 11.4558 16.1424 11.1229 16.044C10.79 15.9455 10.4899 15.7884 10.2227 15.5727C9.96007 15.3523 9.735 15.0663 9.54745 14.7146C9.35989 14.363 9.21688 13.9363 9.11841 13.4346C9.01994 12.9328 8.97071 12.3467 8.97071 11.6762V10.1148C8.97071 9.27546 9.04573 8.57212 9.19577 8.00476C9.35051 7.43739 9.56855 6.98257 9.84988 6.64027C10.1312 6.29329 10.4688 6.04478 10.8627 5.89473C11.2613 5.74468 11.7067 5.66966 12.199 5.66966C12.5976 5.66966 12.9633 5.7189 13.2963 5.81736C13.6339 5.91114 13.934 6.06353 14.1965 6.27454C14.4591 6.48085 14.6818 6.7575 14.8647 7.10448C15.0523 7.44677 15.1953 7.86643 15.2938 8.36346C15.3922 8.86049 15.4415 9.44427 15.4415 10.1148ZM14.1332 11.8872V9.89675C14.1332 9.43723 14.1051 9.03398 14.0488 8.687C13.9973 8.33533 13.9199 8.03524 13.8167 7.78672C13.7136 7.53821 13.5823 7.33658 13.4229 7.18185C13.2681 7.02711 13.0876 6.91458 12.8813 6.84424C12.6797 6.76922 12.4523 6.73171 12.199 6.73171C11.8896 6.73171 11.6153 6.79032 11.3761 6.90754C11.137 7.02008 10.9354 7.2006 10.7713 7.44912C10.6118 7.69763 10.4899 8.02351 10.4055 8.42676C10.3211 8.83001 10.2789 9.32001 10.2789 9.89675V11.8872C10.2789 12.3467 10.3047 12.7523 10.3563 13.104C10.4126 13.4557 10.4946 13.7604 10.6025 14.0183C10.7103 14.2715 10.8416 14.4802 10.9963 14.6443C11.1511 14.8084 11.3292 14.9303 11.5309 15.01C11.7372 15.0851 11.9646 15.1226 12.2131 15.1226C12.532 15.1226 12.811 15.0616 13.0501 14.9397C13.2892 14.8178 13.4885 14.6279 13.6479 14.37C13.812 14.1074 13.934 13.7722 14.0137 13.3642C14.0934 12.9516 14.1332 12.4593 14.1332 11.8872ZM17.1998 15.3617C17.1998 15.1413 17.2678 14.9561 17.4038 14.8061C17.5444 14.6513 17.7461 14.574 18.0087 14.574C18.2712 14.574 18.4705 14.6513 18.6065 14.8061C18.7472 14.9561 18.8175 15.1413 18.8175 15.3617C18.8175 15.5774 18.7472 15.7603 18.6065 15.9103C18.4705 16.0604 18.2712 16.1354 18.0087 16.1354C17.7461 16.1354 17.5444 16.0604 17.4038 15.9103C17.2678 15.7603 17.1998 15.5774 17.1998 15.3617ZM17.2068 9.15121C17.2068 8.93083 17.2748 8.74561 17.4108 8.59557C17.5515 8.44083 17.7531 8.36346 18.0157 8.36346C18.2783 8.36346 18.4776 8.44083 18.6135 8.59557C18.7542 8.74561 18.8245 8.93083 18.8245 9.15121C18.8245 9.3669 18.7542 9.54977 18.6135 9.69981C18.4776 9.84986 18.2783 9.92488 18.0157 9.92488C17.7531 9.92488 17.5515 9.84986 17.4108 9.69981C17.2748 9.54977 17.2068 9.3669 17.2068 9.15121ZM24.8803 5.75406V16.051H23.5791V7.37878L20.9557 8.33533V7.16075L24.6763 5.75406H24.8803ZM35.4164 14.9819V16.051H28.7135V15.1155L32.0685 11.3808C32.4811 10.9213 32.7999 10.5321 33.025 10.2133C33.2548 9.88972 33.4142 9.60135 33.5033 9.34814C33.5971 9.09025 33.644 8.82767 33.644 8.5604C33.644 8.22279 33.5736 7.91801 33.433 7.64605C33.297 7.36941 33.0954 7.14902 32.8281 6.98491C32.5608 6.8208 32.2373 6.73874 31.8575 6.73874C31.4026 6.73874 31.0228 6.82783 30.7181 7.00601C30.418 7.1795 30.1929 7.42333 30.0428 7.73749C29.8928 8.05165 29.8178 8.4127 29.8178 8.82064H28.5166C28.5166 8.24389 28.6432 7.71639 28.8964 7.23811C29.1496 6.75984 29.5247 6.38004 30.0217 6.0987C30.5188 5.81267 31.1307 5.66966 31.8575 5.66966C32.5045 5.66966 33.0578 5.78454 33.5174 6.0143C33.9769 6.23937 34.3285 6.55822 34.5724 6.97084C34.8209 7.37878 34.9451 7.85706 34.9451 8.40566C34.9451 8.70576 34.8936 9.01054 34.7904 9.32001C34.6919 9.62479 34.5536 9.92957 34.3754 10.2344C34.2019 10.5391 33.998 10.8392 33.7635 11.1346C33.5338 11.43 33.2876 11.7208 33.025 12.0068L30.282 14.9819H35.4164Z" fill="#C4C4CC"/>
</g>
</svg>
